<?xml version="1.0" standalone="no"?>
<!DOCTYPE svg PUBLIC "-//W3C//DTD SVG 20010904//EN"
 "http://www.w3.org/TR/2001/REC-SVG-20010904/DTD/svg10.dtd">
<svg version="1.0" xmlns="http://www.w3.org/2000/svg"
 width="5000.000000pt" height="2776.000000pt" viewBox="0 0 5000.000000 2776.000000"
 preserveAspectRatio="xMidYMid meet">

<g transform="translate(0.000000,2776.000000) scale(0.100000,-0.100000)"
fill="#000000" stroke="none">
<path d="M13760 27519 c-2016 -33 -3836 -343 -5385 -919 -1944 -724 -3510
-1889 -4622 -3441 -1188 -1657 -1900 -3794 -2138 -6409 -26 -289 -46 -580 -67
-970 -18 -323 -18 -1747 0 -2045 65 -1099 183 -1967 388 -2840 543 -2317 1654
-4225 3291 -5653 1243 -1085 2704 -1851 4443 -2328 1011 -277 2094 -444 3375
-521 370 -22 1836 -26 2255 -5 1140 56 2030 147 2985 308 507 85 1335 258
1899 397 l251 62 5157 3 5157 2 5 43 c6 45 176 2784 176 2830 l0 27 -330 0
-329 0 -20 -67 c-412 -1388 -600 -2015 -604 -2019 -23 -24 -733 -89 -1242
-114 -561 -28 -858 -32 -2633 -37 l-1892 -5 0 4110 0 4110 33 6 c17 3 608 91
1312 196 704 105 1295 193 1313 196 l32 6 0 509 0 509 -4882 -2 -4883 -3 -3
-503 c-1 -297 2 -502 7 -502 7 0 2962 -446 3094 -467 l37 -6 0 -3478 0 -3478
-237 -118 c-473 -236 -1049 -437 -1779 -622 -2119 -534 -4205 -634 -5949 -286
-1400 280 -2570 837 -3535 1685 -137 120 -456 436 -580 575 -1373 1535 -2177
3719 -2419 6570 -124 1455 -100 3189 65 4665 280 2513 975 4467 2078 5845 269
335 614 686 949 964 548 454 1240 848 1977 1125 817 308 1760 506 2770 581
686 50 1499 50 2195 -1 1891 -138 3687 -652 5029 -1439 266 -156 583 -364 591
-388 2 -7 113 -680 245 -1497 132 -817 243 -1495 245 -1507 l5 -23 620 0 620
0 0 2639 0 2638 -200 52 c-2814 729 -5870 1087 -8870 1040z"/>
<path d="M39150 26713 c-509 -53 -1142 -267 -1937 -653 -518 -252 -981 -530
-1313 -789 -63 -49 -116 -88 -118 -86 -2 2 -26 286 -52 632 -27 345 -49 629
-50 631 0 1 -676 1 -1502 0 l-1503 -3 -3 -250 -2 -251 632 -133 c348 -72 641
-134 651 -137 16 -5 17 -222 17 -4374 l0 -4368 -23 -6 c-36 -9 -1263 -266
-1271 -266 -3 0 -5 -114 -4 -252 l3 -253 2443 -3 2442 -2 0 255 c0 140 -2 255
-5 255 -3 0 -397 61 -875 135 -477 74 -871 135 -874 135 -3 0 -6 1725 -6 3834
l0 3834 76 32 c412 171 895 303 1469 400 376 64 714 100 935 100 l105 0 315
-597 315 -598 243 -3 242 -2 0 1395 0 1395 -157 -2 c-87 0 -174 -3 -193 -5z"/>
<path d="M26365 26670 c-763 -34 -1569 -140 -2490 -328 l-230 -47 -3 -1128 -2
-1127 313 0 314 0 183 633 c101 347 188 638 194 646 18 24 401 206 549 261
448 166 918 250 1409 250 458 0 773 -92 1034 -302 259 -208 440 -563 519
-1019 48 -274 48 -271 52 -1331 l4 -1008 -26 0 c-116 0 -1832 -52 -1985 -60
-1434 -76 -2302 -343 -2925 -898 -538 -480 -816 -1237 -815 -2227 1 -923 200
-1677 575 -2173 413 -548 1030 -834 1879 -871 619 -27 1258 62 1800 249 537
186 1057 500 1463 885 65 61 105 92 107 83 3 -7 48 -229 101 -493 53 -264 99
-488 101 -497 5 -17 81 -18 1420 -18 l1414 0 0 255 c0 140 -2 255 -5 255 -3 0
-288 61 -635 135 -347 74 -632 135 -635 135 -3 0 -6 1646 -7 3658 -4 4059 2
3723 -68 4072 -154 769 -538 1303 -1170 1624 -404 206 -906 331 -1515 376
-197 15 -694 20 -920 10z m1843 -7102 l-3 -1822 -135 -62 c-446 -206 -940
-380 -1260 -444 -363 -73 -872 -108 -1166 -79 -393 38 -673 163 -902 402 -300
315 -452 822 -452 1514 0 530 81 972 239 1299 157 325 341 509 666 665 348
167 825 266 1455 300 207 11 1240 45 1448 48 l112 1 -2 -1822z"/>
<path d="M44975 26670 c-763 -34 -1569 -140 -2490 -328 l-230 -47 -3 -1128 -2
-1127 313 0 314 0 183 633 c101 347 188 638 194 646 18 24 401 206 549 261
448 166 918 250 1409 250 458 0 773 -92 1034 -302 259 -208 440 -563 519
-1019 48 -274 48 -271 52 -1331 l4 -1008 -26 0 c-116 0 -1832 -52 -1985 -60
-1434 -76 -2302 -343 -2925 -898 -538 -480 -816 -1237 -815 -2227 1 -923 200
-1676 575 -2173 413 -548 1030 -834 1879 -871 619 -27 1258 62 1800 249 537
186 1057 500 1463 885 65 61 105 92 107 83 3 -7 48 -229 101 -493 53 -264 99
-488 101 -497 5 -17 81 -18 1420 -18 l1414 0 0 255 c0 140 -2 255 -5 255 -3 0
-288 61 -635 135 -347 74 -632 135 -635 135 -3 0 -6 1646 -7 3658 -4 4059 2
3723 -68 4072 -154 769 -538 1303 -1170 1624 -404 206 -906 331 -1515 376
-197 15 -694 20 -920 10z m1843 -7102 l-3 -1822 -135 -62 c-446 -206 -940
-380 -1260 -444 -363 -73 -872 -108 -1166 -79 -393 38 -673 163 -902 402 -319
334 -469 880 -449 1632 19 704 163 1182 459 1526 107 124 247 226 443 320 348
167 825 266 1455 300 207 11 1240 45 1448 48 l112 1 -2 -1822z"/>
<path d="M48394 8944 l-642 -324 -48 15 c-240 73 -873 143 -1169 130 -749 -34
-1253 -213 -1615 -575 -263 -263 -413 -588 -471 -1020 -19 -137 -16 -505 5
-660 84 -627 348 -1047 821 -1305 39 -21 72 -39 73 -41 2 -1 -202 -236 -455
-520 l-458 -518 3 -68 c4 -98 35 -209 87 -313 58 -116 121 -199 234 -308 124
-119 251 -200 429 -273 22 -9 16 -16 -94 -99 -383 -290 -620 -536 -737 -767
-106 -208 -138 -412 -102 -648 66 -441 384 -770 926 -958 616 -215 1647 -251
2454 -87 299 61 539 142 790 265 548 270 893 666 1026 1178 47 184 62 328 56
547 -8 276 -47 445 -147 645 -207 412 -582 646 -1170 730 -169 24 -419 30
-1299 30 -785 0 -939 2 -1030 16 -119 17 -256 60 -342 105 -60 32 -134 99
-141 127 -4 15 340 753 361 775 4 4 41 0 82 -8 222 -47 677 -81 934 -70 584
24 1013 141 1350 366 407 272 631 651 711 1204 22 146 24 557 5 710 -48 380
-164 689 -338 902 l-34 42 403 416 c222 230 404 420 406 424 3 10 -198 256
-211 257 -7 1 -301 -144 -653 -322z m-1397 -673 c309 -68 508 -210 632 -451
121 -236 171 -511 171 -945 0 -347 -29 -565 -105 -793 -156 -465 -481 -672
-1056 -672 -254 0 -431 35 -604 120 -304 148 -469 424 -542 907 -22 148 -26
684 -5 828 33 231 77 388 153 535 102 199 244 326 464 413 175 69 302 87 585
82 169 -3 234 -8 307 -24z m904 -5221 c307 -29 506 -144 608 -351 54 -110 71
-193 71 -355 0 -213 -34 -367 -119 -540 -212 -432 -688 -699 -1406 -790 -168
-21 -658 -30 -837 -15 -336 29 -586 95 -778 207 -78 45 -202 168 -248 246 -69
116 -112 295 -112 462 0 342 183 762 453 1042 l100 104 1081 0 c649 0 1123 -4
1187 -10z"/>
<path d="M40956 8758 c-394 -34 -1048 -254 -1524 -511 -77 -41 -125 -61 -127
-54 -2 7 -13 95 -25 197 -11 102 -23 195 -26 208 l-4 22 -790 0 -790 0 0 -139
0 -139 88 -20 c48 -11 196 -44 329 -74 l243 -53 0 -2340 0 -2340 -243 -53
c-133 -30 -281 -63 -329 -74 l-88 -20 0 -139 0 -139 1195 0 1195 0 0 139 0
139 -47 11 c-27 5 -193 38 -370 73 l-323 63 0 2191 0 2192 51 11 c297 64 674
121 932 142 189 15 496 7 597 -16 337 -75 549 -298 643 -674 l21 -86 3 -1880
3 -1880 -322 -64 c-178 -36 -342 -69 -366 -74 l-43 -9 3 -136 3 -137 1190 0
1190 0 3 137 3 136 -93 21 c-51 11 -201 44 -333 73 l-240 53 -5 1955 c-5 1777
-7 1964 -23 2059 -63 382 -176 643 -369 847 -218 231 -500 352 -892 384 -144
11 -177 11 -320 -2z"/>
<path d="M34260 8743 c-235 -8 -661 -54 -955 -104 -129 -22 -469 -87 -497 -95
-17 -5 -18 -43 -18 -615 l0 -609 170 0 169 0 11 38 c5 20 50 174 99 342 l88
304 39 25 c125 80 428 184 644 222 144 26 452 37 559 20 401 -63 609 -333 661
-860 5 -57 10 -323 10 -591 l0 -489 -52 -5 c-29 -3 -174 -8 -323 -11 -702 -15
-990 -33 -1275 -81 -354 -59 -608 -150 -835 -299 -333 -218 -519 -541 -580
-1003 -17 -132 -20 -469 -5 -623 98 -995 661 -1426 1725 -1318 498 51 931 240
1306 571 44 39 79 67 79 64 0 -8 100 -498 106 -518 5 -17 50 -18 765 -18 l759
0 0 139 c0 124 -2 140 -17 145 -10 2 -163 35 -340 73 l-323 68 0 1880 c0 1163
-4 1930 -10 2012 -30 388 -136 667 -335 881 -260 279 -628 417 -1208 452 -154
9 -219 10 -417 3z m980 -3816 l0 -973 -27 -11 c-16 -6 -84 -36 -153 -66 -386
-169 -625 -225 -990 -234 -189 -4 -227 -3 -311 15 -333 69 -522 291 -595 697
-13 75 -18 153 -18 310 0 323 36 511 135 714 44 88 64 117 133 185 93 93 159
135 289 184 178 67 362 103 629 122 149 11 546 26 776 28 l132 2 0 -973z"/>
</g>
</svg>
